<?xml version="1.0" encoding="utf-8"?>
<!-- Generator: Adobe Illustrator 24.0.0, SVG Export Plug-In . SVG Version: 6.00 Build 0)  -->
<svg version="1.1" id="Layer_1" xmlns="http://www.w3.org/2000/svg" xmlns:xlink="http://www.w3.org/1999/xlink" x="0px" y="0px"
	 viewBox="0 0 841.9 188.4" style="enable-background:new 0 0 841.9 188.4;" xml:space="preserve">
<style type="text/css">
	.st0{fill:#F28A10;}
	.st1{fill:#202F58;}
</style>
<g>
	<g>
		<path class="st0" d="M37.9,135.4l14.3-17.2c10.8,8.9,21.8,13.4,32.9,13.4c10.6,0,15.9-3.6,15.9-10.7c0-3.2-1.4-5.7-4.3-7.6
			c-3-2-9-4.2-18-6.5C66.1,103.7,57.2,100,52.2,96c-6.6-5.1-9.9-12.9-9.9-23.2c0-10,3.6-18,10.9-24.1c7.1-6.1,16.4-9.1,27.7-9.1
			c15.7,0,29.3,4.7,41,14l-12.6,18.3c-10.4-7.3-20-10.9-28.7-10.9c-4.5,0-8,0.9-10.6,2.8c-2.4,1.8-3.6,4.2-3.6,7.1
			c0,3.6,1.6,6.3,4.7,8.2c2.9,1.7,9.3,3.8,19.1,6.3c12,3.2,20.6,7,25.8,11.5c6.1,5.4,9.1,12.7,9.1,21.9c0,10.7-3.8,19.2-11.3,25.4
			c-7.3,5.9-17,8.8-29.2,8.8C66.6,153.1,51,147.2,37.9,135.4z"/>
		<path class="st0" d="M135.4,146.3c-5.7-4.7-8.5-11.2-8.5-19.4c0-8.9,3.2-15.7,9.5-20.3c6-4.4,14.2-6.6,24.6-6.6
			c7,0,13.9,1.2,20.6,3.5V102c0-10.3-6-15.4-18.1-15.4c-7.3,0-15,1.5-23.3,4.6l-6-18.3c10.3-4.5,21.2-6.8,32.8-6.8
			c12.7,0,22.2,3.2,28.5,9.5c6.1,6.1,9.1,15.1,9.1,27v49h-23.2v-9.1c-6.4,7.1-14.9,10.7-25.5,10.7
			C147.6,153.1,140.8,150.8,135.4,146.3z M176.7,132.5c3.5-2.8,5.2-6.4,5.2-10.7v-4.3c-4.5-2.1-9.6-3.2-15.3-3.2
			c-11,0-16.5,4-16.5,12c0,3.2,1.2,5.7,3.6,7.6c2.4,1.8,5.6,2.7,9.5,2.7C168.7,136.5,173.2,135.2,176.7,132.5z"/>
		<path class="st0" d="M217.5,87.5h-9.9V67.8h9.9v-5.4c0-9.1,2.3-16,6.8-20.5c4.4-4.4,10.9-6.6,19.4-6.6c6.4,0,12.1,0.8,17,2.4v19.9
			c-3.8-1.4-7.4-2-10.9-2c-5.8,0-8.7,3-8.7,9.1V68h19.4v19.5h-19.1v64h-24V87.5z"/>
		<path class="st0" d="M268.7,141.3c-8.4-8.2-12.6-18.8-12.6-31.8c0-12.3,3.9-22.6,11.7-31c8-8.6,18-12.9,30.1-12.9
			c13.3,0,23.7,4.6,31.2,13.9c6.6,8.4,9.9,19.1,9.9,32c0,1.3-0.1,3.4-0.3,6.3h-58.8c2.4,11,9.3,16.5,20.6,16.5
			c7.5,0,14.3-2.9,20.5-8.7l13.7,12.1c-8.5,10.5-20,15.8-34.5,15.8C287.4,153.4,276.9,149.4,268.7,141.3z M315.7,102.7
			c-0.7-5.5-2.6-9.8-5.7-13.1c-3.2-3.3-7.2-4.9-12.1-4.9c-10.1,0-16.2,6-18.3,18H315.7z"/>
	</g>
	<g>
		<path class="st1" d="M559.9,38.4h84v22.1h-59.7V84h52.6V106h-52.6v42.7h-24.3V38.4z"/>
		<path class="st1" d="M648.5,143.6c-5.7-4.7-8.5-11.2-8.5-19.4c0-8.9,3.2-15.7,9.5-20.3c6-4.4,14.2-6.6,24.6-6.6
			c7,0,13.9,1.2,20.6,3.5v-1.4c0-10.3-6-15.4-18.1-15.4c-7.3,0-15,1.5-23.3,4.6l-6-18.3c10.3-4.5,21.2-6.8,32.8-6.8
			c12.7,0,22.2,3.2,28.5,9.5c6.1,6.1,9.1,15.1,9.1,27v49h-23.2v-9.1c-6.4,7.1-14.9,10.7-25.5,10.7
			C660.7,150.3,653.8,148.1,648.5,143.6z M689.8,129.7c3.5-2.8,5.2-6.4,5.2-10.7v-4.3c-4.5-2.1-9.6-3.2-15.3-3.2
			c-11,0-16.6,4-16.6,12c0,3.2,1.2,5.7,3.6,7.6c2.4,1.8,5.6,2.7,9.5,2.7C681.8,133.8,686.3,132.4,689.8,129.7z"/>
		<path class="st1" d="M749,105.9l-28.5-41.6h25.7l15.8,24.6l15.9-24.6h25.1l-28.5,41.1l29.8,43.3h-25.7l-17-26.3l-17,26.3h-25.1
			L749,105.9z"/>
	</g>
	<g>
		<g>
			<path class="st0" d="M491.1,23.7v2.2h-77.8c-13.2,0-24,10.7-24,24v99.5c-6.2-1.8-10.8-7.6-10.8-14.4V23.7c0-8.3,6.7-15,15-15
				h82.6C484.4,8.7,491.1,15.4,491.1,23.7z"/>
		</g>
		<g>
			<path class="st1" d="M494.5,180.1h-82.6c-9.9,0-18-8.1-18-18V50.8c0-9.9,8.1-18,18-18h82.6c9.9,0,18,8.1,18,18v111.3
				C512.5,172,504.4,180.1,494.5,180.1z M411.9,38.8c-6.6,0-12,5.4-12,12v111.3c0,6.6,5.4,12,12,12h82.6c6.6,0,12-5.4,12-12V50.8
				c0-6.6-5.4-12-12-12H411.9z"/>
		</g>
		<g>
			<g>
				<path class="st1" d="M487.1,78.9h-67.8c-1.7,0-3-1.3-3-3c0-1.7,1.3-3,3-3h67.8c1.7,0,3,1.3,3,3
					C490.1,77.5,488.8,78.9,487.1,78.9z"/>
			</g>
			<g>
				<path class="st1" d="M487.1,99.3h-67.8c-1.7,0-3-1.3-3-3c0-1.7,1.3-3,3-3h67.8c1.7,0,3,1.3,3,3
					C490.1,97.9,488.8,99.3,487.1,99.3z"/>
			</g>
			<g>
				<path class="st1" d="M487.1,119.7h-67.8c-1.7,0-3-1.3-3-3c0-1.7,1.3-3,3-3h67.8c1.7,0,3,1.3,3,3
					C490.1,118.3,488.8,119.7,487.1,119.7z"/>
			</g>
			<g>
				<path class="st1" d="M487.1,140h-67.8c-1.7,0-3-1.3-3-3s1.3-3,3-3h67.8c1.7,0,3,1.3,3,3S488.8,140,487.1,140z"/>
			</g>
		</g>
	</g>
</g>
</svg>
